first trial																																					
nRows=42																																					
nColumns=38																																					
																																					
# SIMM Motion File Header:																																					
name MVN-015																																					
datacolumns 38																																					
datarows 42																																					
otherdata 1																																					
range 42.031 42.714																																					
endheader																																					
time	pelvis_tilt	pelvis_list	pelvis_rotation	pelvis_tx	pelvis_ty	pelvis_tz	hip_flexion_r	hip_adduction_r	hip_rotation_r	knee_angle_r	ankle_angle_r	subtalar_angle_r	mtp_angle_r	hip_flexion_l	hip_adduction_l	hip_rotation_l	knee_angle_l	ankle_angle_l	subtalar_angle_l	mtp_angle_l	lumbar_extension	lumbar_bending	lumbar_rotation	arm_flex_r	arm_add_r	arm_rot_r	elbow_flex_r	pro_sup_r	wrist_flex_r	wrist_dev_r	arm_flex_l	arm_add_l	arm_rot_l	elbow_flex_l	pro_sup_l	wrist_flex_l	wrist_dev_l
42.031	-3.2094	0.3723	89.5	-0.384	0.832	0.3357	39.0635	-19.3819	4.9884	18.8799	-18.7521	18.2944	0	47.6329	-7.1968	1.0126	33.0703	-13.1145	3.5906	0	2.9743	1.7139	1.2915	33.1199	-11.8755	4.2599	47.1043	17.6407	-11.5549	-17.2023	22.9961	-36.5917	5.0842	34.4366	112.3976	-7.3898	13.8381
42.048	-3.2081	0.3699	89.5081	-0.3841	0.8319	0.3358	39.067	-19.3894	4.9834	18.8861	-18.7501	18.3028	0	47.6455	-7.1887	1.0227	33.0829	-13.1116	3.5872	0	2.9611	1.7213	1.3037	33.024	-11.7911	4.2274	46.6858	17.4121	-11.7855	-17.5311	23.0448	-36.5833	5.1047	34.4214	112.3647	-7.3918	13.8537
42.065	-3.2117	0.369	89.5126	-0.3841	0.8318	0.3359	39.0772	-19.3938	4.991	18.8949	-18.7432	18.3026	0	47.661	-7.1848	1.021	33.0957	-13.1086	3.589	0	2.9489	1.7313	1.3056	32.9329	-11.7276	4.2374	46.3035	17.1347	-11.8573	-17.9291	23.0589	-36.5582	5.1137	34.461	112.3538	-7.3912	13.8601
42.081	-3.2182	0.3691	89.515	-0.3842	0.8317	0.3359	39.092	-19.3963	5.0063	18.9055	-18.7332	18.2974	0	47.6787	-7.1833	1.0125	33.1086	-13.1057	3.5935	0	2.9373	1.7428	1.3027	32.845	-11.6756	4.2646	45.9587	16.8153	-11.8557	-18.3928	23.0562	-36.5239	5.1156	34.5282	112.3557	-7.3887	13.8622
42.098	-3.2263	0.3701	89.5158	-0.3842	0.8316	0.3359	39.1082	-19.3981	5.0229	18.916	-18.7223	18.2924	0	47.6955	-7.183	0.999	33.1191	-13.1026	3.5972	0	2.9273	1.7547	1.3008	32.7565	-11.6247	4.2732	45.6389	16.4986	-11.899	-18.8873	23.0564	-36.4971	5.119	34.5779	112.3562	-7.3876	13.8614
42.115	-3.2363	0.3722	89.5153	-0.3842	0.8316	0.336	39.1254	-19.4002	5.0395	18.9252	-18.711	18.2887	0	47.7109	-7.1837	0.9767	33.1258	-13.0993	3.5988	0	2.9192	1.7673	1.3012	32.669	-11.5749	4.2454	45.3468	16.1937	-12.063	-19.4194	23.0671	-36.4837	5.125	34.5904	112.3532	-7.3891	13.8571
42.131	-3.2478	0.3751	89.513	-0.3842	0.8316	0.336	39.1442	-19.4016	5.0572	18.9342	-18.6988	18.2852	0	47.7254	-7.1856	0.9494	33.1301	-13.0958	3.5996	0	2.9127	1.7801	1.3024	32.5811	-11.5261	4.199	45.0794	15.893	-12.2715	-19.983	23.0807	-36.4777	5.1326	34.5853	112.3487	-7.392	13.85
42.148	-3.2582	0.3787	89.5089	-0.3842	0.8315	0.336	39.1627	-19.4012	5.0737	18.9443	-18.6871	18.2833	0	47.7377	-7.1879	0.9295	33.1334	-13.0926	3.5993	0	2.9077	1.7905	1.3058	32.4844	-11.4678	4.1514	44.8152	15.6146	-12.4152	-20.5246	23.0932	-36.4777	5.1478	34.5763	112.3338	-7.3957	13.843
42.165	-3.2664	0.3834	89.5026	-0.3842	0.8315	0.336	39.1806	-19.3981	5.0883	18.9559	-18.6765	18.2845	0	47.7469	-7.1904	0.921	33.1358	-13.0898	3.598	0	2.904	1.7974	1.3124	32.3694	-11.3933	4.1013	44.5504	15.3665	-12.4347	-21.0426	23.1039	-36.4872	5.1786	34.5673	112.2959	-7.401	13.8375
42.181	-3.2734	0.3887	89.4944	-0.3841	0.8315	0.3361	39.1983	-19.3931	5.1015	18.9686	-18.6665	18.2874	0	47.7539	-7.1934	0.9198	33.1372	-13.0872	3.5958	0	2.9019	1.8018	1.3211	32.2457	-11.3092	4.0502	44.2888	15.1403	-12.3901	-21.5381	23.1135	-36.5027	5.2171	34.5544	112.2476	-7.4071	13.832
42.198	-3.2792	0.3932	89.4866	-0.3841	0.8314	0.3361	39.2149	-19.3875	5.1121	18.9822	-18.6558	18.2897	0	47.7605	-7.1967	0.9265	33.1396	-13.0845	3.5922	0	2.9021	1.8048	1.3295	32.1332	-11.2249	4.02	44.0198	14.9296	-12.3533	-21.9619	23.1214	-36.5124	5.2457	34.5393	112.2179	-7.4107	13.8259
42.215	-3.2842	0.3966	89.4792	-0.384	0.8314	0.3361	39.2313	-19.3807	5.12	18.9979	-18.6429	18.2893	0	47.7681	-7.2006	0.9453	33.1445	-13.0809	3.5861	0	2.9065	1.8064	1.337	32.0408	-11.1386	4.0343	43.739	14.7174	-12.345	-22.2964	23.1245	-36.5101	5.2549	34.5219	112.2222	-7.4109	13.8178
42.231	-3.2878	0.3992	89.472	-0.3839	0.8314	0.3361	39.2466	-19.3733	5.1252	19.0145	-18.6294	18.2883	0	47.7752	-7.2048	0.9719	33.1503	-13.0773	3.5786	0	2.9132	1.8067	1.3443	31.9594	-11.0522	4.0694	43.4509	14.5201	-12.3456	-22.5595	23.1257	-36.5021	5.2541	34.5024	112.2451	-7.4087	13.809
42.248	-3.2882	0.4015	89.466	-0.3839	0.8313	0.3361	39.2577	-19.368	5.1265	19.029	-18.619	18.2908	0	47.7791	-7.2086	0.9941	33.1545	-13.0757	3.5725	0	2.9178	1.807	1.3512	31.882	-10.9808	4.0771	43.1585	14.3817	-12.366	-22.7557	23.1331	-36.4955	5.2539	34.4826	112.2697	-7.4041	13.8025
42.265	-3.2841	0.4038	89.4623	-0.3838	0.8313	0.3362	39.2627	-19.3667	5.1214	19.0398	-18.6141	18.2997	0	47.7784	-7.2112	1.0071	33.1563	-13.0774	3.5686	0	2.9187	1.8079	1.3586	31.8064	-10.9338	4.0291	42.8613	14.3251	-12.4117	-22.8857	23.1535	-36.492	5.257	34.4609	112.2942	-7.3961	13.7999
42.281	-3.2767	0.4058	89.4596	-0.3837	0.8312	0.3362	39.2635	-19.3674	5.1124	19.0484	-18.6123	18.3122	0	47.7745	-7.2135	1.0157	33.1565	-13.0812	3.5661	0	2.9174	1.8088	1.3656	31.7349	-10.9017	3.9535	42.5596	14.3284	-12.4777	-22.949	23.1799	-36.49	5.2606	34.439	112.3203	-7.3857	13.7997
42.298	-3.2678	0.4077	89.4568	-0.3837	0.8312	0.3363	39.2626	-19.3677	5.1055	19.0563	-18.6111	18.3234	0	47.7685	-7.2167	1.0211	33.1553	-13.0859	3.5647	0	2.9147	1.8091	1.37	31.6676	-10.8713	3.8865	42.2582	14.3682	-12.5597	-22.9489	23.2001	-36.4917	5.2663	34.4241	112.3363	-7.3761	13.7999
42.315	-3.258	0.4094	89.4535	-0.3836	0.8312	0.3363	39.261	-19.3674	5.1064	19.0636	-18.6096	18.3319	0	47.7608	-7.2215	1.0224	33.1526	-13.0916	3.5648	0	2.91	1.8089	1.3715	31.6031	-10.8386	3.8379	41.9598	14.4385	-12.6552	-22.8723	23.2103	-36.4977	5.2751	34.4208	112.3338	-7.3674	13.8015
42.331	-3.2467	0.4108	89.4497	-0.3836	0.8312	0.3364	39.2576	-19.3665	5.1093	19.07	-18.6086	18.3392	0	47.751	-7.2272	1.0207	33.1486	-13.0983	3.566	0	2.9037	1.8082	1.3704	31.5428	-10.8078	3.7977	41.6618	14.5453	-12.7666	-22.7323	23.2143	-36.5074	5.2861	34.4246	112.3211	-7.3594	13.8035
42.348	-3.2341	0.4119	89.445	-0.3835	0.8311	0.3364	39.2526	-19.3626	5.1035	19.0764	-18.6077	18.3445	0	47.7388	-7.2341	1.0196	33.1438	-13.1049	3.5671	0	2.8978	1.8062	1.3646	31.4905	-10.7781	3.7728	41.36	14.6829	-12.8965	-22.5703	23.2104	-36.521	5.2978	34.4292	112.3121	-7.3543	13.8013
42.365	-3.2197	0.4135	89.439	-0.3835	0.8311	0.3364	39.2444	-19.3564	5.0897	19.0818	-18.6057	18.3443	0	47.7226	-7.2419	1.019	33.1377	-13.1111	3.5683	0	2.8934	1.8023	1.3517	31.445	-10.7447	3.7688	41.0451	14.8625	-13.0592	-22.3759	23.194	-36.5384	5.314	34.4342	112.3145	-7.3535	13.7903
42.381	-3.204	0.4147	89.4321	-0.3834	0.8311	0.3365	39.2345	-19.3472	5.0671	19.0872	-18.6038	18.3421	0	47.704	-7.2508	1.0191	33.131	-13.1172	3.5694	0	2.8894	1.7971	1.3342	31.4075	-10.7126	3.7799	40.7265	15.0731	-13.2404	-22.1596	23.1697	-36.5597	5.3308	34.4399	112.3205	-7.3556	13.7751
42.398	-3.1885	0.4137	89.4242	-0.3834	0.8311	0.3365	39.2274	-19.3294	5.0223	19.0953	-18.6054	18.3475	0	47.6885	-7.2616	1.0252	33.1258	-13.1239	3.5687	0	2.8835	1.7924	1.3171	31.3855	-10.6957	3.7958	40.4288	15.2771	-13.4	-21.9943	23.1509	-36.5856	5.3349	34.4416	112.3201	-7.3587	13.7648
42.415	-3.1739	0.4083	89.4143	-0.3832	0.8311	0.3366	39.2272	-19.2924	4.9315	19.1114	-18.6122	18.3643	0	47.679	-7.2777	1.0399	33.1225	-13.133	3.5661	0	2.8732	1.7885	1.3019	31.3864	-10.7064	3.815	40.1444	15.4887	-13.5254	-21.893	23.1439	-36.6208	5.3133	34.4358	112.306	-7.3635	13.7648
42.431	-3.1597	0.4006	89.4034	-0.3831	0.8311	0.3367	39.2299	-19.2469	4.8185	19.13	-18.6225	18.3887	0	47.6725	-7.2957	1.0606	33.1207	-13.1428	3.5617	0	2.8611	1.785	1.2871	31.4029	-10.7323	3.839	39.8804	15.6945	-13.6296	-21.8429	23.1423	-36.6606	5.2791	34.4259	112.2854	-7.3693	13.7697
42.448	-3.1458	0.395	89.3953	-0.383	0.831	0.3368	39.2272	-19.2204	4.7407	19.1389	-18.6351	18.419	0	47.666	-7.3056	1.0847	33.1213	-13.1485	3.5543	0	2.8531	1.7824	1.2743	31.4207	-10.7503	3.8619	39.6835	15.8142	-13.7107	-21.8779	23.1406	-36.6913	5.2582	34.4171	112.27	-7.3727	13.7723
42.464	-3.1325	0.3942	89.391	-0.383	0.831	0.3369	39.2145	-19.2277	4.726	19.1295	-18.6527	18.4612	0	47.6585	-7.3015	1.1132	33.1255	-13.1472	3.5413	0	2.8521	1.7814	1.2633	31.437	-10.7476	3.8741	39.5823	15.8125	-13.7567	-22.0206	23.1356	-36.7077	5.2642	34.4135	112.264	-7.3726	13.7684
42.481	-3.1198	0.3956	89.3897	-0.383	0.831	0.3369	39.1965	-19.2539	4.7465	19.1104	-18.6727	18.5092	0	47.6509	-7.2894	1.145	33.1322	-13.142	3.5253	0	2.8552	1.7812	1.2541	31.4546	-10.7371	3.8853	39.5485	15.7239	-13.7787	-22.2476	23.1304	-36.715	5.2835	34.4109	112.2632	-7.37	13.7622
42.498	-3.1072	0.3967	89.3918	-0.3831	0.8309	0.3369	39.1783	-19.2816	4.7762	19.0952	-18.6858	18.5436	0	47.6433	-7.2769	1.1741	33.1388	-13.1368	3.5126	0	2.8593	1.7797	1.2488	31.4668	-10.7336	3.9187	39.5423	15.5722	-13.8101	-22.5231	23.1292	-36.7158	5.302	34.4025	112.2667	-7.3648	13.7583
42.514	-3.094	0.3965	89.3995	-0.3831	0.8309	0.3369	39.1606	-19.3079	4.8099	19.0883	-18.6877	18.5561	0	47.6358	-7.2652	1.2023	33.1455	-13.1322	3.5044	0	2.8641	1.7759	1.2481	31.4666	-10.7443	3.9874	39.5584	15.339	-13.8661	-22.8668	23.1331	-36.708	5.3151	34.3834	112.274	-7.3561	13.7591
42.531	-3.081	0.396	89.4107	-0.3831	0.8309	0.3369	39.1428	-19.3357	4.8527	19.0852	-18.6826	18.5549	0	47.6284	-7.2531	1.2278	33.1521	-13.1275	3.4995	0	2.8701	1.7708	1.2513	31.461	-10.7619	4.0783	39.6027	15.0426	-13.9306	-23.259	23.1409	-36.6937	5.3273	34.3585	112.2856	-7.3448	13.7623
42.548	-3.07	0.3964	89.4204	-0.3832	0.8309	0.3369	39.1286	-19.3559	4.8942	19.0856	-18.6741	18.5453	0	47.6205	-7.2456	1.2385	33.1557	-13.1258	3.5007	0	2.8748	1.7652	1.2573	31.4643	-10.7798	4.1755	39.6523	14.7628	-13.9907	-23.6054	23.1538	-36.6811	5.3376	34.3351	112.3021	-7.3331	13.7655
42.565	-3.0612	0.3984	89.4265	-0.3832	0.8308	0.3369	39.1197	-19.3634	4.9319	19.0915	-18.6607	18.5248	0	47.611	-7.2458	1.2263	33.1539	-13.1291	3.5115	0	2.8783	1.7584	1.2669	31.4851	-10.7971	4.2834	39.6919	14.5104	-14.0375	-23.886	23.1749	-36.6767	5.3452	34.3134	112.3263	-7.3218	13.7677
42.581	-3.0544	0.4013	89.431	-0.3832	0.8308	0.3369	39.1144	-19.3634	4.9684	19.101	-18.6438	18.4959	0	47.6012	-7.2506	1.1993	33.1491	-13.1353	3.5285	0	2.8807	1.7511	1.2793	31.5148	-10.8148	4.3976	39.7363	14.2749	-14.0806	-24.121	23.2011	-36.674	5.3508	34.2933	112.3554	-7.31	13.7699
42.598	-3.0506	0.4042	89.4341	-0.3832	0.8308	0.3368	39.1119	-19.3627	5.0006	19.108	-18.631	18.4714	0	47.5944	-7.2555	1.1698	33.1446	-13.1407	3.5436	0	2.8802	1.7467	1.2919	31.5414	-10.829	4.4891	39.8073	14.1034	-14.1363	-24.2757	23.2239	-36.6623	5.3558	34.2808	112.3811	-7.2981	13.7732
42.614	-3.051	0.407	89.4361	-0.3832	0.8308	0.3368	39.113	-19.3631	5.0291	19.111	-18.6244	18.455	0	47.5929	-7.2597	1.1387	33.1415	-13.1443	3.5551	0	2.8759	1.7467	1.3056	31.5606	-10.8345	4.5413	39.9075	14.0199	-14.2058	-24.3269	23.2412	-36.6312	5.3599	34.2794	112.4038	-7.2845	13.7797
42.631	-3.0545	0.4096	89.4366	-0.3832	0.8308	0.3368	39.1169	-19.3629	5.0535	19.1115	-18.6219	18.4429	0	47.5944	-7.2641	1.105	33.1386	-13.1472	3.5648	0	2.8687	1.7495	1.3195	31.5768	-10.8367	4.5707	40.0342	14.0005	-14.2883	-24.2978	23.2551	-36.5911	5.3634	34.2858	112.4231	-7.2708	13.7873
42.648	-3.0583	0.4123	89.4341	-0.3833	0.8308	0.3368	39.1211	-19.3627	5.0698	19.1088	-18.6238	18.4374	0	47.5961	-7.267	1.078	33.1363	-13.1486	3.5701	0	2.8599	1.7535	1.3275	31.5915	-10.8479	4.5982	40.201	14.0211	-14.3962	-24.2239	23.2636	-36.5632	5.3677	34.2966	112.4304	-7.2621	13.7911
42.664	-3.0623	0.4153	89.4269	-0.3833	0.8308	0.3368	39.1257	-19.3625	5.075	19.1016	-18.6318	18.4408	0	47.5972	-7.2677	1.06	33.1342	-13.148	3.5694	0	2.8489	1.7588	1.3261	31.6016	-10.873	4.6262	40.4175	14.0852	-14.5349	-24.1058	23.2648	-36.5578	5.3764	34.3142	112.4174	-7.2604	13.7883
42.681	-3.0666	0.4182	89.4169	-0.3834	0.8309	0.3368	39.1305	-19.3625	5.072	19.0911	-18.6442	18.4508	0	47.5984	-7.2669	1.0488	33.1326	-13.1458	3.5644	0	2.8363	1.7652	1.3187	31.6102	-10.9072	4.6524	40.6741	14.1887	-14.6992	-23.9429	23.2605	-36.5647	5.3861	34.3362	112.3923	-7.2638	13.7817
42.698	-3.0694	0.4202	89.4078	-0.3834	0.8309	0.3368	39.1327	-19.3634	5.0663	19.0799	-18.6568	18.4619	0	47.599	-7.2652	1.0461	33.1324	-13.1428	3.557	0	2.8252	1.7698	1.3095	31.6274	-10.9484	4.6903	40.9559	14.2964	-14.8856	-23.7697	23.2542	-36.5735	5.3884	34.3524	112.3708	-7.2712	13.7748
42.714	-3.0704	0.4209	89.4013	-0.3834	0.8309	0.3368	39.131	-19.3664	5.0588	19.0681	-18.6682	18.473	0	47.5996	-7.2619	1.0565	33.1349	-13.1387	3.5464	0	2.8173	1.7711	1.2986	31.6528	-10.995	4.7489	41.2541	14.3985	-15.1045	-23.5942	23.2445	-36.5816	5.376	34.3573	112.3599	-7.2848	13.7672
